<svg width="23" height="23" viewBox="0 0 23 23" fill="none" xmlns="http://www.w3.org/2000/svg">
<mask id="mask0_438_813" style="mask-type:alpha" maskUnits="userSpaceOnUse" x="0" y="0" width="23" height="23">
<rect width="22.16" height="22.16" fill="#D9D9D9"/>
</mask>
<g mask="url(#mask0_438_813)">
<path d="M3.69432 20.3143C3.18649 20.3143 2.75175 20.1335 2.39011 19.7719C2.02848 19.4102 1.84766 18.9755 1.84766 18.4677V3.69432C1.84766 3.18649 2.02848 2.75175 2.39011 2.39011C2.75175 2.02848 3.18649 1.84766 3.69432 1.84766H11.081L16.621 7.38766V11.3118H14.7743V8.31099H10.1577V3.69432H3.69432V18.4677H13.851V20.3143H3.69432ZM4.61766 17.5443C4.67921 16.7903 4.91005 16.0978 5.31016 15.4668C5.71027 14.8359 6.23349 14.3357 6.87982 13.9664L6.00266 12.3967C6.00266 12.3814 6.03343 12.2659 6.09499 12.0505C6.17193 12.0197 6.24503 12.0043 6.31428 12.0043C6.38353 12.0043 6.43355 12.0428 6.46432 12.1197L7.36457 13.7356C7.67235 13.6125 7.98013 13.5163 8.28791 13.447C8.59568 13.3778 8.91116 13.3432 9.23432 13.3432C9.55749 13.3432 9.87296 13.3778 10.1807 13.447C10.4885 13.5163 10.7963 13.6125 11.1041 13.7356L12.0043 12.1197L12.3506 12.0274C12.4275 12.0582 12.4737 12.112 12.4891 12.189C12.5045 12.2659 12.4968 12.3352 12.466 12.3967L11.5888 13.9664C12.2352 14.3357 12.7584 14.8359 13.1585 15.4668C13.5586 16.0978 13.7894 16.7903 13.851 17.5443H4.61766ZM7.15682 16.1593C7.27993 16.1593 7.38766 16.1132 7.47999 16.0208C7.57232 15.9285 7.61849 15.8208 7.61849 15.6977C7.61849 15.5745 7.57232 15.4668 7.47999 15.3745C7.38766 15.2822 7.27993 15.236 7.15682 15.236C7.03371 15.236 6.92599 15.2822 6.83366 15.3745C6.74132 15.4668 6.69516 15.5745 6.69516 15.6977C6.69516 15.8208 6.74132 15.9285 6.83366 16.0208C6.92599 16.1132 7.03371 16.1593 7.15682 16.1593ZM11.3118 16.1593C11.4349 16.1593 11.5427 16.1132 11.635 16.0208C11.7273 15.9285 11.7735 15.8208 11.7735 15.6977C11.7735 15.5745 11.7273 15.4668 11.635 15.3745C11.5427 15.2822 11.4349 15.236 11.3118 15.236C11.1887 15.236 11.081 15.2822 10.9887 15.3745C10.8963 15.4668 10.8502 15.5745 10.8502 15.6977C10.8502 15.8208 10.8963 15.9285 10.9887 16.0208C11.081 16.1132 11.1887 16.1593 11.3118 16.1593ZM18.4677 20.3143L14.7743 16.621L16.067 15.3052L17.5443 16.7595V12.9277H19.391V16.7595L20.8683 15.3052L22.161 16.621L18.4677 20.3143Z" fill="#0038FF"/>
</g>
</svg>
