<svg width="20" height="20" viewBox="0 0 20 20" fill="none" xmlns="http://www.w3.org/2000/svg">
<mask id="mask0_440_1070" style="mask-type:alpha" maskUnits="userSpaceOnUse" x="0" y="0" width="20" height="20">
<rect x="0.28125" y="0.3125" width="19.5669" height="19.5669" fill="#D9D9D9"/>
</mask>
<g mask="url(#mask0_440_1070)">
<path d="M4.35713 18.251C3.90873 18.251 3.52486 18.0914 3.20554 17.772C2.88622 17.4527 2.72656 17.0689 2.72656 16.6205V5.20645C2.72656 4.75805 2.88622 4.37418 3.20554 4.05486C3.52486 3.73554 3.90873 3.57588 4.35713 3.57588H5.17242V1.94531H6.80299V3.57588H13.3253V1.94531H14.9558V3.57588H15.7711C16.2195 3.57588 16.6034 3.73554 16.9227 4.05486C17.242 4.37418 17.4017 4.75805 17.4017 5.20645V16.6205C17.4017 17.0689 17.242 17.4527 16.9227 17.772C16.6034 18.0914 16.2195 18.251 15.7711 18.251H4.35713ZM4.35713 16.6205H15.7711V8.4676H4.35713V16.6205ZM4.35713 6.83703H15.7711V5.20645H4.35713V6.83703ZM10.0641 11.7287C9.83313 11.7287 9.6395 11.6506 9.48324 11.4943C9.32697 11.3381 9.24884 11.1445 9.24884 10.9135C9.24884 10.6825 9.32697 10.4888 9.48324 10.3326C9.6395 10.1763 9.83313 10.0982 10.0641 10.0982C10.2951 10.0982 10.4888 10.1763 10.645 10.3326C10.8013 10.4888 10.8794 10.6825 10.8794 10.9135C10.8794 11.1445 10.8013 11.3381 10.645 11.4943C10.4888 11.6506 10.2951 11.7287 10.0641 11.7287ZM6.80299 11.7287C6.57199 11.7287 6.37836 11.6506 6.2221 11.4943C6.06583 11.3381 5.9877 11.1445 5.9877 10.9135C5.9877 10.6825 6.06583 10.4888 6.2221 10.3326C6.37836 10.1763 6.57199 10.0982 6.80299 10.0982C7.03398 10.0982 7.22762 10.1763 7.38388 10.3326C7.54014 10.4888 7.61827 10.6825 7.61827 10.9135C7.61827 11.1445 7.54014 11.3381 7.38388 11.4943C7.22762 11.6506 7.03398 11.7287 6.80299 11.7287ZM13.3253 11.7287C13.0943 11.7287 12.9006 11.6506 12.7444 11.4943C12.5881 11.3381 12.51 11.1445 12.51 10.9135C12.51 10.6825 12.5881 10.4888 12.7444 10.3326C12.9006 10.1763 13.0943 10.0982 13.3253 10.0982C13.5563 10.0982 13.7499 10.1763 13.9062 10.3326C14.0624 10.4888 14.1406 10.6825 14.1406 10.9135C14.1406 11.1445 14.0624 11.3381 13.9062 11.4943C13.7499 11.6506 13.5563 11.7287 13.3253 11.7287ZM10.0641 14.9899C9.83313 14.9899 9.6395 14.9118 9.48324 14.7555C9.32697 14.5992 9.24884 14.4056 9.24884 14.1746C9.24884 13.9436 9.32697 13.75 9.48324 13.5937C9.6395 13.4374 9.83313 13.3593 10.0641 13.3593C10.2951 13.3593 10.4888 13.4374 10.645 13.5937C10.8013 13.75 10.8794 13.9436 10.8794 14.1746C10.8794 14.4056 10.8013 14.5992 10.645 14.7555C10.4888 14.9118 10.2951 14.9899 10.0641 14.9899ZM6.80299 14.9899C6.57199 14.9899 6.37836 14.9118 6.2221 14.7555C6.06583 14.5992 5.9877 14.4056 5.9877 14.1746C5.9877 13.9436 6.06583 13.75 6.2221 13.5937C6.37836 13.4374 6.57199 13.3593 6.80299 13.3593C7.03398 13.3593 7.22762 13.4374 7.38388 13.5937C7.54014 13.75 7.61827 13.9436 7.61827 14.1746C7.61827 14.4056 7.54014 14.5992 7.38388 14.7555C7.22762 14.9118 7.03398 14.9899 6.80299 14.9899ZM13.3253 14.9899C13.0943 14.9899 12.9006 14.9118 12.7444 14.7555C12.5881 14.5992 12.51 14.4056 12.51 14.1746C12.51 13.9436 12.5881 13.75 12.7444 13.5937C12.9006 13.4374 13.0943 13.3593 13.3253 13.3593C13.5563 13.3593 13.7499 13.4374 13.9062 13.5937C14.0624 13.75 14.1406 13.9436 14.1406 14.1746C14.1406 14.4056 14.0624 14.5992 13.9062 14.7555C13.7499 14.9118 13.5563 14.9899 13.3253 14.9899Z" fill="#B3B3B3"/>
</g>
</svg>
