<svg width="22" height="22" viewBox="0 0 22 22" fill="none" xmlns="http://www.w3.org/2000/svg">
<mask id="mask0_496_1037" style="mask-type:alpha" maskUnits="userSpaceOnUse" x="0" y="0" width="22" height="22">
<rect width="22" height="22" fill="#D9D9D9"/>
</mask>
<g mask="url(#mask0_496_1037)">
<path d="M11.0003 19.25L9.67114 18.0583C8.12809 16.668 6.85239 15.4687 5.84406 14.4604C4.83573 13.4521 4.03364 12.5468 3.43781 11.7448C2.84198 10.9427 2.42566 10.2055 2.18885 9.5333C1.95205 8.86108 1.83364 8.17358 1.83364 7.4708C1.83364 6.03469 2.31489 4.83539 3.27739 3.87289C4.23989 2.91039 5.4392 2.42914 6.87531 2.42914C7.66976 2.42914 8.42601 2.59719 9.14406 2.9333C9.86212 3.26942 10.4809 3.74303 11.0003 4.35414C11.5198 3.74303 12.1385 3.26942 12.8566 2.9333C13.5746 2.59719 14.3309 2.42914 15.1253 2.42914C16.5614 2.42914 17.7607 2.91039 18.7232 3.87289C19.6857 4.83539 20.167 6.03469 20.167 7.4708C20.167 8.17358 20.0486 8.86108 19.8118 9.5333C19.575 10.2055 19.1586 10.9427 18.5628 11.7448C17.967 12.5468 17.1649 13.4521 16.1566 14.4604C15.1482 15.4687 13.8725 16.668 12.3295 18.0583L11.0003 19.25ZM11.0003 16.775C12.467 15.4611 13.6739 14.3343 14.6211 13.3948C15.5684 12.4552 16.317 11.6378 16.867 10.9427C17.417 10.2475 17.7989 9.62879 18.0128 9.08643C18.2267 8.54407 18.3336 8.00553 18.3336 7.4708C18.3336 6.55414 18.0281 5.79025 17.417 5.17914C16.8059 4.56803 16.042 4.26247 15.1253 4.26247C14.4073 4.26247 13.7427 4.4649 13.1316 4.86976C12.5204 5.27462 12.1003 5.79025 11.8711 6.41664H10.1295C9.90031 5.79025 9.48017 5.27462 8.86906 4.86976C8.25795 4.4649 7.59337 4.26247 6.87531 4.26247C5.95864 4.26247 5.19476 4.56803 4.58364 5.17914C3.97253 5.79025 3.66698 6.55414 3.66698 7.4708C3.66698 8.00553 3.77392 8.54407 3.98781 9.08643C4.2017 9.62879 4.58364 10.2475 5.13364 10.9427C5.68364 11.6378 6.43226 12.4552 7.37948 13.3948C8.3267 14.3343 9.53364 15.4611 11.0003 16.775Z" fill="white"/>
</g>
</svg>
